<?xml version="1.0" standalone="no"?>
<!DOCTYPE svg PUBLIC "-//W3C//DTD SVG 20010904//EN"
 "http://www.w3.org/TR/2001/REC-SVG-20010904/DTD/svg10.dtd">
<svg version="1.0" xmlns="http://www.w3.org/2000/svg"
 width="500.000000pt" height="500.000000pt" viewBox="0 0 500.000000 500.000000"
 preserveAspectRatio="xMidYMid meet">

<g transform="translate(0.000000,500.000000) scale(0.100000,-0.100000)"
fill="#000000" stroke="none">
<path d="M2631 4344 c0 -11 3 -14 6 -6 3 7 2 16 -1 19 -3 4 -6 -2 -5 -13z"/>
<path d="M2418 4182 c-21 -4 -25 -47 -5 -55 14 -5 41 12 44 28 2 16 -20 31
-39 27z"/>
<path d="M2527 3943 c-1 0 -38 -4 -82 -8 -44 -3 -96 -8 -115 -10 -19 -2 -64
-6 -100 -10 -36 -3 -76 -8 -90 -10 -14 -2 -45 -7 -70 -10 -336 -40 -763 -135
-777 -172 -7 -17 25 -776 33 -805 3 -10 11 -18 17 -18 7 0 82 18 167 40 154
39 511 120 530 120 6 0 10 -32 10 -78 l0 -79 -62 -14 c-34 -8 -63 -19 -65 -25
-2 -6 15 -23 38 -39 l42 -28 106 23 c213 45 241 52 241 64 0 21 -92 65 -122
59 l-28 -5 0 75 c0 63 3 76 18 81 55 16 650 95 720 96 10 0 12 29 8 143 -3 78
-8 237 -11 352 -3 116 -8 220 -10 232 -3 14 -15 24 -36 28 -25 6 -356 4 -362
-2z m246 -57 c-4 -6 -8 -17 -9 -24 -2 -8 -6 -17 -10 -20 -4 -4 -4 1 -1 10 3
10 2 20 -4 23 -5 4 -9 3 -8 -2 4 -23 -2 -35 -16 -29 -8 3 -15 2 -15 -2 0 -4
-21 -8 -47 -8 -27 -1 -64 -4 -83 -7 -39 -6 -131 -20 -142 -21 -5 -1 -7 -5 -5
-11 1 -6 61 -9 157 -8 164 2 175 -9 25 -23 -49 -4 -94 -9 -100 -10 -5 -1 -18
-2 -27 -3 -10 0 -18 -5 -18 -10 0 -5 38 -8 85 -7 90 2 114 -8 43 -18 -24 -3
-63 -8 -88 -11 -25 -4 -47 -11 -49 -17 -2 -6 -7 -5 -13 3 -8 12 -9 11 -6 -1 5
-15 14 -15 208 -5 108 6 97 -8 -15 -19 -130 -12 -170 -18 -181 -27 -6 -5 -14
-7 -17 -4 -4 3 -5 2 -2 -2 9 -11 35 -12 35 -2 0 6 6 7 12 2 7 -4 25 -6 40 -4
16 1 28 -2 28 -8 0 -14 -13 -20 -49 -23 -17 -1 -31 -6 -31 -11 0 -4 -4 -5 -10
-2 -5 3 -10 2 -10 -4 0 -10 161 -7 248 5 23 3 42 1 42 -4 0 -5 -51 -14 -112
-21 -62 -6 -124 -14 -138 -17 -14 -3 -30 -6 -37 -8 -44 -8 -7 -12 89 -9 126 4
134 -11 11 -23 -40 -3 -73 -10 -73 -14 0 -4 -11 -6 -25 -5 -14 2 -23 0 -20 -4
2 -5 19 -7 37 -6 18 1 39 -3 47 -9 11 -8 13 -8 8 0 -4 8 21 11 86 9 51 -1 93
-5 95 -8 1 -4 1 -22 1 -39 l-2 -33 -7 35 c-7 34 -7 34 -9 6 0 -16 7 -39 17
-50 16 -20 16 -20 0 -7 -19 14 -23 7 -19 -28 2 -8 -2 -10 -10 -5 -8 4 -10 3
-5 -5 10 -16 29 -3 22 16 -3 8 -1 11 4 8 6 -3 8 -16 5 -28 -3 -12 -7 -40 -9
-62 -3 -22 -5 -42 -6 -45 -1 -3 -2 -9 -1 -13 1 -5 -3 -6 -9 -2 -5 3 -10 1 -10
-4 0 -6 -3 -10 -7 -9 -22 6 -467 -70 -698 -118 -93 -19 -259 -58 -369 -85
-109 -27 -200 -48 -202 -46 -7 6 -13 102 -24 332 -6 121 -13 266 -16 322 l-6
102 59 16 c32 9 72 21 88 25 64 19 338 70 505 94 263 37 445 52 642 53 101 1
136 -2 131 -11z m-56 -158 c-21 -7 -32 -7 -40 1 -8 8 0 11 29 10 39 -1 39 -1
11 -11z m23 -198 c0 -5 -13 -10 -30 -10 -16 0 -30 5 -30 10 0 6 14 10 30 10
17 0 30 -4 30 -10z"/>
<path d="M2273 3643 c9 -2 23 -2 30 0 6 3 -1 5 -18 5 -16 0 -22 -2 -12 -5z"/>
<path d="M2682 3300 c0 -14 2 -19 5 -12 2 6 2 18 0 25 -3 6 -5 1 -5 -13z"/>
<path d="M2671 3256 c-8 -10 -9 -16 -1 -21 5 -3 10 -5 11 -3 4 18 7 38 4 38
-1 0 -8 -6 -14 -14z"/>
<path d="M3377 3553 c-4 -3 -7 -15 -7 -25 0 -12 -7 -18 -24 -18 -42 0 -76 -18
-76 -40 0 -11 5 -20 11 -20 6 0 1 -14 -11 -30 -18 -25 -19 -34 -10 -45 7 -8
23 -15 36 -15 14 0 22 -5 19 -12 -3 -7 -6 -30 -8 -51 -3 -22 -14 -49 -28 -63
-22 -24 -23 -27 -7 -38 10 -7 20 -33 24 -64 3 -28 12 -56 19 -62 6 -5 36 -13
66 -17 54 -8 54 -9 51 -41 l-4 -32 66 0 c67 0 115 12 128 33 4 7 8 31 8 55 0
27 12 71 32 115 39 90 46 153 24 212 -21 54 -63 91 -119 105 -23 6 -69 22
-102 35 -63 26 -77 29 -88 18z"/>
<path d="M4015 3358 c-75 -41 -126 -124 -225 -364 -76 -183 -93 -208 -185
-260 -83 -47 -155 -103 -182 -142 -29 -44 -43 -115 -43 -223 0 -50 -5 -100
-12 -112 -6 -12 -48 -58 -93 -102 -60 -59 -91 -98 -116 -150 -33 -68 -34 -72
-34 -197 0 -85 -3 -129 -11 -132 -22 -8 -152 64 -184 102 -40 48 -58 107 -42
133 15 24 15 54 0 78 -17 28 6 218 32 253 13 18 16 28 7 31 -6 2 16 24 50 48
l62 45 -29 18 c-50 29 -92 69 -120 113 l-27 42 -38 -39 c-22 -22 -44 -40 -51
-40 -13 0 -124 116 -124 130 0 4 66 24 148 44 l147 36 105 110 c79 83 113 112
138 116 17 4 32 10 32 13 0 4 -28 20 -61 36 -55 25 -66 27 -108 18 -25 -6 -61
-9 -79 -6 -18 3 -51 -2 -75 -10 -23 -9 -118 -32 -212 -52 -93 -19 -179 -37
-189 -40 -11 -2 -26 1 -34 8 -11 9 -17 8 -26 -4 -6 -9 -22 -19 -36 -23 -62
-17 -130 -34 -188 -46 -35 -7 -69 -19 -77 -26 -7 -7 -124 -38 -261 -69 -323
-73 -367 -84 -376 -93 -4 -4 72 -51 170 -104 l177 -97 324 79 c179 44 326 79
327 77 12 -12 94 -160 91 -164 -4 -4 -91 -29 -182 -52 -39 -10 -42 -14 -70
-87 -37 -97 -66 -114 -199 -121 -171 -8 -211 -33 -245 -154 -81 -280 -175
-533 -215 -576 -37 -40 -40 -59 -17 -98 l20 -34 -20 -25 c-11 -15 -27 -26 -35
-26 -10 0 -14 -13 -14 -52 1 -45 6 -58 34 -91 40 -44 110 -72 160 -63 48 9 60
27 52 81 -9 57 5 85 44 85 43 0 80 47 80 100 0 11 30 81 66 157 l67 137 48
-52 c54 -59 81 -72 147 -72 61 0 70 7 74 57 l3 42 43 -19 42 -19 0 -63 c0 -77
23 -127 68 -150 41 -20 67 -13 162 45 65 39 65 39 105 24 22 -8 90 -34 150
-56 145 -55 140 -51 143 -103 2 -35 -2 -48 -19 -63 l-21 -20 -67 72 c-36 40
-77 77 -91 82 -58 20 -96 -27 -84 -106 7 -50 16 -58 64 -55 33 2 37 -2 77 -65
23 -37 40 -69 38 -72 -2 -2 -107 -9 -232 -17 -392 -22 -399 -23 -422 -48 -19
-20 -20 -29 -13 -97 l7 -74 50 0 50 0 3 48 3 48 52 -5 c62 -7 434 -19 496 -17
32 2 42 -1 39 -11 -23 -59 -118 -384 -122 -415 -2 -21 -13 -58 -24 -82 -29
-64 -18 -92 41 -107 40 -10 48 -9 60 5 29 32 39 64 33 100 -4 29 10 77 79 256
46 121 85 220 87 220 2 -1 147 -58 323 -128 l320 -127 0 -65 c0 -41 5 -69 12
-73 7 -4 36 -5 65 -2 49 5 53 7 58 35 3 17 2 46 -3 65 -5 19 -12 53 -15 74 -7
38 -11 42 -102 91 -101 54 -420 203 -482 226 -21 7 -38 15 -38 19 0 3 59 33
131 67 l130 62 15 -34 c17 -41 48 -52 97 -36 44 15 53 55 25 109 -10 20 -16
42 -14 49 9 22 -29 56 -60 55 -31 -1 -186 -52 -323 -108 -47 -19 -89 -34 -94
-34 -5 0 -7 23 -6 51 2 40 -1 54 -15 64 -13 10 -16 24 -14 55 3 42 4 43 58 60
101 32 465 204 529 249 17 13 37 41 47 69 9 26 28 73 41 104 77 190 214 725
273 1070 28 166 28 519 0 593 -8 22 -15 25 -57 25 -27 0 -57 -6 -68 -12z
m-1396 -1934 c-33 -18 -36 -17 -36 10 0 22 2 23 30 14 l30 -11 -24 -13z"/>
</g>
</svg>
